<svg xmlns="http://www.w3.org/2000/svg" version="1.1" xmlns:xlink="http://www.w3.org/1999/xlink" xmlns:svgjs="http://svgjs.dev/svgjs" width="1500" height="196" viewBox="0 0 1500 196"><g transform="matrix(1,0,0,1,-0.9090909090909918,-0.5004685903843011)"><svg viewBox="0 0 396 52" data-background-color="#ffffff" preserveAspectRatio="xMidYMid meet" height="196" width="1500" xmlns="http://www.w3.org/2000/svg" xmlns:xlink="http://www.w3.org/1999/xlink"><g id="tight-bounds" transform="matrix(1,0,0,1,0.2400000000000091,0.13277738112236648)"><svg viewBox="0 0 395.52 51.734445237755246" height="51.734445237755246" width="395.52"><g><svg viewBox="0 0 395.52 51.734445237755246" height="51.734445237755246" width="395.52"><g><svg viewBox="0 0 395.52 51.734445237755246" height="51.734445237755246" width="395.52"><g><svg viewBox="0 0 395.52 51.734445237755246" height="51.734445237755246" width="395.52"><g id="textblocktransform"><svg viewBox="0 0 395.52 51.734445237755246" height="51.734445237755246" width="395.52" id="textblock"><g><svg viewBox="0 0 395.52 51.734445237755246" height="51.734445237755246" width="395.52"><g transform="matrix(1,0,0,1,0,0)"><svg width="395.52" viewBox="2.65 -36.3 350.12 45.8" height="51.734445237755246" data-palette-color="#b3d9ff"><path d="M17.4 0.5L17.4 0.5Q12.75 0.5 9.53-1.13 6.3-2.75 4.6-5.78 2.9-8.8 2.7-13.05L2.7-13.05Q2.65-15.1 2.65-17.45 2.65-19.8 2.7-21.95L2.7-21.95Q2.9-26.15 4.63-29.2 6.35-32.25 9.58-33.88 12.8-35.5 17.4-35.5L17.4-35.5Q20.8-35.5 23.5-34.6 26.2-33.7 28.1-32.13 30-30.55 31.05-28.45 32.1-26.35 32.15-23.9L32.15-23.9Q32.2-23.45 31.88-23.15 31.55-22.85 31.1-22.85L31.1-22.85 26.35-22.85Q25.8-22.85 25.45-23.13 25.1-23.4 24.95-24.05L24.95-24.05Q24.15-27.35 22.2-28.55 20.25-29.75 17.35-29.75L17.35-29.75Q14-29.75 12-27.88 10-26 9.85-21.7L9.85-21.7Q9.7-17.6 9.85-13.3L9.85-13.3Q10-9 12-7.13 14-5.25 17.35-5.25L17.35-5.25Q20.25-5.25 22.23-6.48 24.2-7.7 24.95-10.95L24.95-10.95Q25.1-11.65 25.45-11.9 25.8-12.15 26.35-12.15L26.35-12.15 31.1-12.15Q31.55-12.15 31.88-11.85 32.2-11.55 32.15-11.1L32.15-11.1Q32.1-8.65 31.05-6.55 30-4.45 28.1-2.88 26.2-1.3 23.5-0.4 20.8 0.5 17.4 0.5ZM45.05 0.5L45.05 0.5Q42.45 0.5 40.35-0.53 38.25-1.55 37.02-3.28 35.8-5 35.8-7.15L35.8-7.15Q35.8-10.65 38.65-12.73 41.5-14.8 46.1-15.5L46.1-15.5 52.95-16.5 52.95-17.55Q52.95-19.65 51.9-20.8 50.85-21.95 48.3-21.95L48.3-21.95Q46.5-21.95 45.37-21.23 44.25-20.5 43.7-19.3L43.7-19.3Q43.3-18.65 42.55-18.65L42.55-18.65 38.6-18.65Q38.05-18.65 37.77-18.95 37.5-19.25 37.5-19.75L37.5-19.75Q37.55-20.55 38.17-21.7 38.8-22.85 40.07-23.93 41.35-25 43.4-25.75 45.45-26.5 48.35-26.5L48.35-26.5Q51.5-26.5 53.67-25.73 55.85-24.95 57.15-23.65 58.45-22.35 59.05-20.6 59.65-18.85 59.65-16.9L59.65-16.9 59.65-1.2Q59.65-0.7 59.3-0.35 58.95 0 58.45 0L58.45 0 54.4 0Q53.85 0 53.52-0.35 53.2-0.7 53.2-1.2L53.2-1.2 53.2-3.15Q52.55-2.25 51.45-1.4 50.35-0.55 48.77-0.03 47.2 0.5 45.05 0.5ZM46.75-4.25L46.75-4.25Q48.5-4.25 49.92-5 51.35-5.75 52.17-7.33 53-8.9 53-11.3L53-11.3 53-12.35 48-11.55Q45.05-11.1 43.6-10.1 42.15-9.1 42.15-7.65L42.15-7.65Q42.15-6.55 42.82-5.78 43.5-5 44.55-4.63 45.6-4.25 46.75-4.25ZM75.9 0.5L75.9 0.5Q72.9 0.5 70.77-0.2 68.65-0.9 67.3-1.95 65.95-3 65.3-4.05 64.65-5.1 64.59-5.8L64.59-5.8Q64.55-6.35 64.92-6.68 65.3-7 65.75-7L65.75-7 69.7-7Q69.9-7 70.05-6.95 70.2-6.9 70.45-6.65L70.45-6.65Q71.09-6.1 71.82-5.5 72.55-4.9 73.55-4.48 74.55-4.05 76.05-4.05L76.05-4.05Q78-4.05 79.32-4.83 80.65-5.6 80.65-7.05L80.65-7.05Q80.65-8.1 80.07-8.75 79.5-9.4 77.95-9.93 76.4-10.45 73.55-11.05L73.55-11.05Q70.75-11.7 68.9-12.7 67.05-13.7 66.15-15.2 65.25-16.7 65.25-18.7L65.25-18.7Q65.25-20.65 66.42-22.43 67.59-24.2 69.92-25.35 72.25-26.5 75.7-26.5L75.7-26.5Q78.4-26.5 80.4-25.83 82.4-25.15 83.72-24.15 85.05-23.15 85.75-22.13 86.45-21.1 86.5-20.35L86.5-20.35Q86.55-19.8 86.2-19.48 85.84-19.15 85.4-19.15L85.4-19.15 81.7-19.15Q81.45-19.15 81.25-19.25 81.05-19.35 80.84-19.5L80.84-19.5Q80.3-20 79.65-20.58 79-21.15 78.07-21.55 77.15-21.95 75.65-21.95L75.65-21.95Q73.75-21.95 72.75-21.13 71.75-20.3 71.75-19.05L71.75-19.05Q71.75-18.2 72.22-17.57 72.7-16.95 74.15-16.4 75.59-15.85 78.55-15.25L78.55-15.25Q81.9-14.65 83.87-13.48 85.84-12.3 86.67-10.78 87.5-9.25 87.5-7.4L87.5-7.4Q87.5-5.15 86.17-3.35 84.84-1.55 82.27-0.53 79.7 0.5 75.9 0.5ZM98.34 0L93.89 0Q93.39 0 93.04-0.35 92.69-0.7 92.69-1.2L92.69-1.2 92.69-34.3Q92.69-34.8 93.04-35.15 93.39-35.5 93.89-35.5L93.89-35.5 98.34-35.5Q98.89-35.5 99.22-35.15 99.54-34.8 99.54-34.3L99.54-34.3 99.54-22.9Q100.89-24.5 102.84-25.5 104.79-26.5 107.64-26.5L107.64-26.5Q110.69-26.5 112.97-25.13 115.24-23.75 116.49-21.25 117.74-18.75 117.74-15.25L117.74-15.25 117.74-1.2Q117.74-0.7 117.39-0.35 117.04 0 116.54 0L116.54 0 112.04 0Q111.54 0 111.19-0.35 110.84-0.7 110.84-1.2L110.84-1.2 110.84-14.95Q110.84-17.85 109.42-19.5 107.99-21.15 105.29-21.15L105.29-21.15Q102.69-21.15 101.12-19.5 99.54-17.85 99.54-14.95L99.54-14.95 99.54-1.2Q99.54-0.7 99.22-0.35 98.89 0 98.34 0L98.34 0ZM133.74 0.5L133.74 0.5Q130.69 0.5 128.47-0.88 126.24-2.25 125.04-4.78 123.84-7.3 123.84-10.75L123.84-10.75 123.84-24.8Q123.84-25.3 124.19-25.65 124.54-26 125.04-26L125.04-26 129.44-26Q129.99-26 130.31-25.65 130.64-25.3 130.64-24.8L130.64-24.8 130.64-11.05Q130.64-4.85 136.09-4.85L136.09-4.85Q138.69-4.85 140.22-6.5 141.74-8.15 141.74-11.05L141.74-11.05 141.74-24.8Q141.74-25.3 142.09-25.65 142.44-26 142.94-26L142.94-26 147.34-26Q147.84-26 148.19-25.65 148.54-25.3 148.54-24.8L148.54-24.8 148.54-1.2Q148.54-0.7 148.19-0.35 147.84 0 147.34 0L147.34 0 143.29 0Q142.74 0 142.42-0.35 142.09-0.7 142.09-1.2L142.09-1.2 142.09-3.25Q140.74-1.5 138.74-0.5 136.74 0.5 133.74 0.5ZM161.69 0L156.94 0Q156.44 0 156.09-0.35 155.74-0.7 155.74-1.2L155.74-1.2 155.74-33.75Q155.74-34.3 156.09-34.65 156.44-35 156.94-35L156.94-35 170.34-35Q174.24-35 177.14-33.77 180.04-32.55 181.64-30.08 183.24-27.6 183.24-23.9L183.24-23.9Q183.24-20.15 181.64-17.73 180.04-15.3 177.14-14.1 174.24-12.9 170.34-12.9L170.34-12.9 162.89-12.9 162.89-1.2Q162.89-0.7 162.56-0.35 162.24 0 161.69 0L161.69 0ZM162.79-29.45L162.79-18.45 170.09-18.45Q172.99-18.45 174.54-19.83 176.09-21.2 176.09-23.9L176.09-23.9Q176.09-26.4 174.64-27.93 173.19-29.45 170.09-29.45L170.09-29.45 162.79-29.45ZM193.64 0L189.29 0Q188.79 0 188.44-0.35 188.09-0.7 188.09-1.2L188.09-1.2 188.09-24.75Q188.09-25.3 188.44-25.65 188.79-26 189.29-26L189.29-26 193.34-26Q193.84-26 194.21-25.65 194.59-25.3 194.59-24.75L194.59-24.75 194.59-22.7Q195.74-24.3 197.56-25.15 199.39-26 201.79-26L201.79-26 203.84-26Q204.39-26 204.71-25.65 205.04-25.3 205.04-24.8L205.04-24.8 205.04-21.2Q205.04-20.7 204.71-20.35 204.39-20 203.84-20L203.84-20 199.94-20Q197.54-20 196.21-18.68 194.89-17.35 194.89-14.95L194.89-14.95 194.89-1.2Q194.89-0.7 194.54-0.35 194.19 0 193.64 0L193.64 0ZM220.43 0.5L220.43 0.5Q216.43 0.5 213.71-0.9 210.98-2.3 209.56-4.85 208.13-7.4 207.93-10.8L207.93-10.8Q207.88-11.7 207.88-13 207.88-14.3 207.93-15.2L207.93-15.2Q208.13-18.65 209.61-21.18 211.08-23.7 213.81-25.1 216.53-26.5 220.43-26.5L220.43-26.5Q224.33-26.5 227.06-25.1 229.78-23.7 231.26-21.18 232.73-18.65 232.93-15.2L232.93-15.2Q232.98-14.3 232.98-13 232.98-11.7 232.93-10.8L232.93-10.8Q232.73-7.4 231.31-4.85 229.88-2.3 227.16-0.9 224.43 0.5 220.43 0.5ZM220.43-4.45L220.43-4.45Q223.08-4.45 224.53-6.13 225.98-7.8 226.13-11.05L226.13-11.05Q226.18-11.8 226.18-13 226.18-14.2 226.13-14.95L226.13-14.95Q225.98-18.2 224.53-19.88 223.08-21.55 220.43-21.55L220.43-21.55Q217.78-21.55 216.33-19.88 214.88-18.2 214.73-14.95L214.73-14.95Q214.68-14.2 214.68-13 214.68-11.8 214.73-11.05L214.73-11.05Q214.88-7.8 216.33-6.13 217.78-4.45 220.43-4.45ZM236.13 9.5L234.23 9.5Q233.73 9.5 233.38 9.15 233.03 8.8 233.03 8.3L233.03 8.3 233.03 5.4Q233.03 4.9 233.38 4.55 233.73 4.2 234.23 4.2L234.23 4.2 235.53 4.2Q237.08 4.2 237.83 3.65 238.58 3.1 238.83 2.13 239.08 1.15 239.08-0.05L239.08-0.05 239.08-24.8Q239.08-25.3 239.43-25.65 239.78-26 240.28-26L240.28-26 244.63-26Q245.13-26 245.48-25.65 245.83-25.3 245.83-24.8L245.83-24.8 245.83 0.05Q245.83 3 244.76 5.1 243.68 7.2 241.56 8.35 239.43 9.5 236.13 9.5L236.13 9.5ZM244.78-30.3L240.08-30.3Q239.53-30.3 239.21-30.65 238.88-31 238.88-31.5L238.88-31.5 238.88-35.1Q238.88-35.6 239.21-35.95 239.53-36.3 240.08-36.3L240.08-36.3 244.78-36.3Q245.33-36.3 245.68-35.95 246.03-35.6 246.03-35.1L246.03-35.1 246.03-31.5Q246.03-31 245.68-30.65 245.33-30.3 244.78-30.3L244.78-30.3ZM263.68 0.5L263.68 0.5Q258.13 0.5 254.88-2.7 251.63-5.9 251.38-11.8L251.38-11.8Q251.33-12.3 251.33-13.08 251.33-13.85 251.38-14.3L251.38-14.3Q251.58-18.1 253.1-20.83 254.63-23.55 257.33-25.03 260.03-26.5 263.68-26.5L263.68-26.5Q267.73-26.5 270.48-24.83 273.23-23.15 274.63-20.18 276.03-17.2 276.03-13.3L276.03-13.3 276.03-12.25Q276.03-11.75 275.68-11.4 275.33-11.05 274.78-11.05L274.78-11.05 258.18-11.05Q258.18-11.05 258.18-10.9 258.18-10.75 258.18-10.65L258.18-10.65Q258.23-8.9 258.85-7.43 259.48-5.95 260.7-5.05 261.93-4.15 263.63-4.15L263.63-4.15Q265.03-4.15 265.98-4.58 266.93-5 267.53-5.55 268.13-6.1 268.38-6.45L268.38-6.45Q268.83-7.05 269.1-7.18 269.38-7.3 269.93-7.3L269.93-7.3 274.23-7.3Q274.73-7.3 275.05-7 275.38-6.7 275.33-6.25L275.33-6.25Q275.28-5.45 274.5-4.3 273.73-3.15 272.28-2.05 270.83-0.95 268.65-0.23 266.48 0.5 263.68 0.5ZM258.18-15.4L258.18-15.25 269.23-15.25 269.23-15.4Q269.23-17.35 268.58-18.82 267.93-20.3 266.68-21.13 265.43-21.95 263.68-21.95L263.68-21.95Q261.93-21.95 260.68-21.13 259.43-20.3 258.8-18.82 258.18-17.35 258.18-15.4L258.18-15.4ZM292.58 0.5L292.58 0.5Q288.98 0.5 286.25-0.85 283.53-2.2 282-4.78 280.48-7.35 280.33-11L280.33-11Q280.28-11.75 280.28-12.98 280.28-14.2 280.33-15L280.33-15Q280.48-18.65 282-21.23 283.53-23.8 286.25-25.15 288.98-26.5 292.58-26.5L292.58-26.5Q295.78-26.5 298.03-25.63 300.28-24.75 301.73-23.38 303.18-22 303.9-20.53 304.63-19.05 304.68-17.85L304.68-17.85Q304.73-17.3 304.35-16.98 303.98-16.65 303.48-16.65L303.48-16.65 299.08-16.65Q298.58-16.65 298.3-16.9 298.03-17.15 297.78-17.65L297.78-17.65Q297.03-19.65 295.8-20.48 294.58-21.3 292.68-21.3L292.68-21.3Q290.18-21.3 288.7-19.73 287.23-18.15 287.13-14.75L287.13-14.75Q287.03-12.85 287.13-11.25L287.13-11.25Q287.23-7.8 288.7-6.25 290.18-4.7 292.68-4.7L292.68-4.7Q294.63-4.7 295.83-5.53 297.03-6.35 297.78-8.35L297.78-8.35Q298.03-8.85 298.3-9.1 298.58-9.35 299.08-9.35L299.08-9.35 303.48-9.35Q303.98-9.35 304.35-9.03 304.73-8.7 304.68-8.15L304.68-8.15Q304.63-7.25 304.2-6.13 303.78-5 302.85-3.83 301.93-2.65 300.53-1.68 299.13-0.7 297.15-0.1 295.18 0.5 292.58 0.5ZM325.67 0L321.62 0Q318.62 0 316.57-1.05 314.52-2.1 313.52-4.17 312.52-6.25 312.52-9.35L312.52-9.35 312.52-20.7 308.57-20.7Q308.07-20.7 307.72-21.05 307.37-21.4 307.37-21.95L307.37-21.95 307.37-24.8Q307.37-25.3 307.72-25.65 308.07-26 308.57-26L308.57-26 312.52-26 312.52-34.3Q312.52-34.8 312.85-35.15 313.17-35.5 313.72-35.5L313.72-35.5 317.77-35.5Q318.27-35.5 318.62-35.15 318.97-34.8 318.97-34.3L318.97-34.3 318.97-26 325.22-26Q325.72-26 326.07-25.65 326.42-25.3 326.42-24.8L326.42-24.8 326.42-21.95Q326.42-21.4 326.07-21.05 325.72-20.7 325.22-20.7L325.22-20.7 318.97-20.7 318.97-9.85Q318.97-7.8 319.7-6.65 320.42-5.5 322.22-5.5L322.22-5.5 325.67-5.5Q326.17-5.5 326.52-5.15 326.87-4.8 326.87-4.3L326.87-4.3 326.87-1.2Q326.87-0.7 326.52-0.35 326.17 0 325.67 0L325.67 0ZM341.17 0.5L341.17 0.5Q338.17 0.5 336.05-0.2 333.92-0.9 332.57-1.95 331.22-3 330.57-4.05 329.92-5.1 329.87-5.8L329.87-5.8Q329.82-6.35 330.2-6.68 330.57-7 331.02-7L331.02-7 334.97-7Q335.17-7 335.32-6.95 335.47-6.9 335.72-6.65L335.72-6.65Q336.37-6.1 337.1-5.5 337.82-4.9 338.82-4.48 339.82-4.05 341.32-4.05L341.32-4.05Q343.27-4.05 344.6-4.83 345.92-5.6 345.92-7.05L345.92-7.05Q345.92-8.1 345.35-8.75 344.77-9.4 343.22-9.93 341.67-10.45 338.82-11.05L338.82-11.05Q336.02-11.7 334.17-12.7 332.32-13.7 331.42-15.2 330.52-16.7 330.52-18.7L330.52-18.7Q330.52-20.65 331.7-22.43 332.87-24.2 335.2-25.35 337.52-26.5 340.97-26.5L340.97-26.5Q343.67-26.5 345.67-25.83 347.67-25.15 349-24.15 350.32-23.15 351.02-22.13 351.72-21.1 351.77-20.35L351.77-20.35Q351.82-19.8 351.47-19.48 351.12-19.15 350.67-19.15L350.67-19.15 346.97-19.15Q346.72-19.15 346.52-19.25 346.32-19.35 346.12-19.5L346.12-19.5Q345.57-20 344.92-20.58 344.27-21.15 343.35-21.55 342.42-21.95 340.92-21.95L340.92-21.95Q339.02-21.95 338.02-21.13 337.02-20.3 337.02-19.05L337.02-19.05Q337.02-18.2 337.5-17.57 337.97-16.95 339.42-16.4 340.87-15.85 343.82-15.25L343.82-15.25Q347.17-14.65 349.15-13.48 351.12-12.3 351.95-10.78 352.77-9.25 352.77-7.4L352.77-7.4Q352.77-5.15 351.45-3.35 350.12-1.55 347.55-0.53 344.97 0.5 341.17 0.5Z" opacity="1" transform="matrix(1,0,0,1,0,0)" fill="#b3d9ff" class="wordmark-text-0" data-fill-palette-color="primary" id="text-0"></path></svg></g></svg></g></svg></g></svg></g><g></g></svg></g></svg></g><defs></defs></svg><rect width="395.52" height="51.734445237755246" fill="none" stroke="none" visibility="hidden"></rect></g></svg></g></svg>