<svg xmlns="http://www.w3.org/2000/svg" version="1.1" xmlns:xlink="http://www.w3.org/1999/xlink" xmlns:svgjs="http://svgjs.dev/svgjs" width="1500" height="344" viewBox="0 0 1500 344"><g transform="matrix(1,0,0,1,-0.9084522071641459,-0.09918466450588426)"><svg viewBox="0 0 396 91" data-background-color="#ffffff" preserveAspectRatio="xMidYMid meet" height="344" width="1500" xmlns="http://www.w3.org/2000/svg" xmlns:xlink="http://www.w3.org/1999/xlink"><g id="tight-bounds" transform="matrix(1,0,0,1,0.24008861730862918,0.026325746556807417)"><svg viewBox="0 0 395.52 90.94743644975124" height="90.94743644975124" width="395.52"><g><svg viewBox="0 0 395.52 90.94743644975124" height="90.94743644975124" width="395.52"><g><svg viewBox="0 0 395.52 90.94743644975124" height="90.94743644975124" width="395.52"><g id="textblocktransform"><svg viewBox="0 0 395.52 90.94743644975124" height="90.94743644975124" width="395.52" id="textblock"><g><svg viewBox="0 0 395.52 90.94743644975124" height="90.94743644975124" width="395.52"><path d="M394.594 19.506C392.735 10.066 387.435 7.442 387.435 7.442 371.165-2.282 350.86-0.186 332.619 1.211 300.414 1.268 268.339 3.345 236.208 4.459 168.767 4.629 100.749 1.834 33.643 8.726 27.339 10.84-6.54 9.141 1.121 20.715 3.129 25.529 10.456 30.873 10.232 35.291 11.236 36.065 12.631 34.29 13.226 35.404 15.309 38.406 18.711 36.99 21.501 38.765 17.614 43.504 20.403 47.45 23.062 51.585 18.377 52.661 12.371 52.151 9.675 55.72 9.396 58.306 7.89 57.815 6.235 57.702 5.026 57.626 2.59 57.91 2.999 58.722 4.394 61.497-1.594 63.102 2.162 65.821-0.422 68.766 3.948 71.315 3.353 74.506 3.278 75.148 3.687 75.695 4.338 75.846 7.22 76.658 3.018 78.244 3.464 79.962 33.029 91.706 65.104 83.587 95.394 88.987 103.259 85.211 97.346 90.328 100.489 89.535 102.943 88.61 104.728 92.442 107.499 90.271 107.927 89.648 107.276 88.175 108.8 88.459 109.6 88.61 110.307 88.572 110.418 87.703 110.586 86.401 109.117 87.212 108.726 86.533 112.947 83.096 111.906 91.272 115.866 90.932 115.68 89.931 114.528 88.496 116.889 88.685 119.232 87.25 119.306 86.061 121.389 89.289 121.463 89.988 121.835 90.479 122.43 90.819 128.938 87.307 135.409 92.065 142.233 90.479 146.417 88.742 150.433 91.423 154.672 90.762 156.16 90.233 157.666 89.289 159.098 90.875 176.632 91.215 195.319 89.799 211.943 90.932 256.364 88.817 303.836 91.8 350.674 89.006 361.719 87.93 373.192 86.401 383.958 85.173 383.958 85.173 392.679 81.813 392.679 66.708S394.538 53.492 394.817 41.465C395.096 29.438 396.398 28.947 394.538 19.506Z" opacity="1" fill="#546379" data-fill-palette-color="tertiary"></path><g transform="matrix(1,0,0,1,55.76832,26.230666666666668)"><svg width="283.98335999999995" viewBox="3 -35.9 334.97 45.4" height="38.4861031164179" data-palette-color="#ffffff"><path d="M16.95 0.5L16.95 0.5Q12.35 0.5 9.33-1.2 6.3-2.9 4.75-5.95 3.2-9 3.05-13.05L3.05-13.05Q3-15.1 3-17.45 3-19.8 3.05-21.95L3.05-21.95Q3.2-26 4.75-29.05 6.3-32.1 9.33-33.8 12.35-35.5 16.95-35.5L16.95-35.5Q20.4-35.5 23-34.55 25.6-33.6 27.33-32 29.05-30.4 29.95-28.43 30.85-26.45 30.95-24.35L30.95-24.35Q31-23.9 30.68-23.6 30.35-23.3 29.9-23.3L29.9-23.3 27.15-23.3Q26.7-23.3 26.38-23.55 26.05-23.8 25.9-24.45L25.9-24.45Q25.05-28.35 22.73-29.8 20.4-31.25 16.95-31.25L16.95-31.25Q12.9-31.25 10.55-28.98 8.2-26.7 8.05-21.7L8.05-21.7Q7.9-17.6 8.05-13.3L8.05-13.3Q8.2-8.3 10.55-6.03 12.9-3.75 16.95-3.75L16.95-3.75Q20.4-3.75 22.73-5.2 25.05-6.65 25.9-10.55L25.9-10.55Q26.05-11.2 26.38-11.45 26.7-11.7 27.15-11.7L27.15-11.7 29.9-11.7Q30.35-11.7 30.68-11.43 31-11.15 30.95-10.7L30.95-10.7Q30.85-8.6 29.95-6.6 29.05-4.6 27.33-3 25.6-1.4 23-0.45 20.4 0.5 16.95 0.5ZM44.25 0.5L44.25 0.5Q41.75 0.5 39.7-0.5 37.65-1.5 36.4-3.2 35.15-4.9 35.15-7.05L35.15-7.05Q35.15-10.5 37.95-12.55 40.75-14.6 45.25-15.25L45.25-15.25 52.7-16.3 52.7-17.75Q52.7-20.15 51.32-21.5 49.95-22.85 46.85-22.85L46.85-22.85Q44.65-22.85 43.25-21.95 41.85-21.05 41.3-19.65L41.3-19.65Q41-18.9 40.25-18.9L40.25-18.9 38-18.9Q37.45-18.9 37.17-19.23 36.9-19.55 36.9-20L36.9-20Q36.9-20.75 37.47-21.85 38.05-22.95 39.25-24 40.45-25.05 42.32-25.78 44.2-26.5 46.9-26.5L46.9-26.5Q49.9-26.5 51.95-25.73 54-24.95 55.17-23.65 56.35-22.35 56.87-20.7 57.4-19.05 57.4-17.35L57.4-17.35 57.4-1.15Q57.4-0.65 57.07-0.33 56.75 0 56.25 0L56.25 0 53.95 0Q53.4 0 53.1-0.33 52.8-0.65 52.8-1.15L52.8-1.15 52.8-3.3Q52.15-2.4 51.05-1.53 49.95-0.65 48.3-0.08 46.65 0.5 44.25 0.5ZM45.3-3.25L45.3-3.25Q47.35-3.25 49.05-4.13 50.75-5 51.72-6.85 52.7-8.7 52.7-11.5L52.7-11.5 52.7-12.9 46.9-12.05Q43.35-11.55 41.55-10.38 39.75-9.2 39.75-7.4L39.75-7.4Q39.75-6 40.57-5.08 41.4-4.15 42.67-3.7 43.95-3.25 45.3-3.25ZM73.6 0.5L73.6 0.5Q70.8 0.5 68.8-0.2 66.8-0.9 65.55-1.9 64.3-2.9 63.67-3.9 63.05-4.9 63-5.5L63-5.5Q62.95-6.05 63.35-6.35 63.75-6.65 64.15-6.65L64.15-6.65 66.4-6.65Q66.65-6.65 66.82-6.58 67-6.5 67.3-6.15L67.3-6.15Q67.95-5.45 68.75-4.75 69.55-4.05 70.72-3.6 71.9-3.15 73.65-3.15L73.65-3.15Q76.2-3.15 77.85-4.13 79.5-5.1 79.5-7L79.5-7Q79.5-8.25 78.82-9 78.15-9.75 76.42-10.35 74.7-10.95 71.7-11.6L71.7-11.6Q68.7-12.3 66.95-13.33 65.2-14.35 64.45-15.78 63.7-17.2 63.7-19L63.7-19Q63.7-20.85 64.8-22.58 65.9-24.3 68.02-25.4 70.15-26.5 73.35-26.5L73.35-26.5Q75.95-26.5 77.8-25.85 79.65-25.2 80.85-24.23 82.05-23.25 82.65-22.3 83.25-21.35 83.3-20.7L83.3-20.7Q83.35-20.2 83-19.88 82.65-19.55 82.2-19.55L82.2-19.55 80.1-19.55Q79.75-19.55 79.52-19.7 79.3-19.85 79.1-20.05L79.1-20.05Q78.6-20.7 77.92-21.35 77.25-22 76.17-22.43 75.1-22.85 73.35-22.85L73.35-22.85Q70.85-22.85 69.6-21.8 68.35-20.75 68.35-19.15L68.35-19.15Q68.35-18.2 68.9-17.45 69.45-16.7 71-16.1 72.55-15.5 75.6-14.8L75.6-14.8Q78.9-14.15 80.8-13.05 82.7-11.95 83.5-10.5 84.3-9.05 84.3-7.15L84.3-7.15Q84.3-5.05 83.1-3.3 81.9-1.55 79.5-0.53 77.1 0.5 73.6 0.5ZM93.79 0L91.29 0Q90.79 0 90.47-0.33 90.14-0.65 90.14-1.15L90.14-1.15 90.14-34.35Q90.14-34.85 90.47-35.18 90.79-35.5 91.29-35.5L91.29-35.5 93.79-35.5Q94.34-35.5 94.64-35.18 94.94-34.85 94.94-34.35L94.94-34.35 94.94-22.7Q96.29-24.4 98.24-25.45 100.19-26.5 103.19-26.5L103.19-26.5Q106.44-26.5 108.72-25.08 110.99-23.65 112.17-21.13 113.34-18.6 113.34-15.25L113.34-15.25 113.34-1.15Q113.34-0.65 113.04-0.33 112.74 0 112.19 0L112.19 0 109.69 0Q109.19 0 108.87-0.33 108.54-0.65 108.54-1.15L108.54-1.15 108.54-15Q108.54-18.5 106.84-20.48 105.14-22.45 101.84-22.45L101.84-22.45Q98.74-22.45 96.84-20.48 94.94-18.5 94.94-15L94.94-15 94.94-1.15Q94.94-0.65 94.64-0.33 94.34 0 93.79 0L93.79 0ZM130.24 0.5L130.24 0.5Q127.04 0.5 124.82-0.93 122.59-2.35 121.44-4.9 120.29-7.45 120.29-10.75L120.29-10.75 120.29-24.85Q120.29-25.35 120.62-25.68 120.94-26 121.44-26L121.44-26 123.94-26Q124.44-26 124.77-25.68 125.09-25.35 125.09-24.85L125.09-24.85 125.09-11Q125.09-3.55 131.59-3.55L131.59-3.55Q134.69-3.55 136.57-5.53 138.44-7.5 138.44-11L138.44-11 138.44-24.85Q138.44-25.35 138.77-25.68 139.09-26 139.59-26L139.59-26 142.09-26Q142.59-26 142.89-25.68 143.19-25.35 143.19-24.85L143.19-24.85 143.19-1.15Q143.19-0.65 142.89-0.33 142.59 0 142.09 0L142.09 0 139.74 0Q139.24 0 138.92-0.33 138.59-0.65 138.59-1.15L138.59-1.15 138.59-3.35Q137.24-1.6 135.32-0.55 133.39 0.5 130.24 0.5ZM155.09 0L152.44 0Q151.89 0 151.59-0.33 151.29-0.65 151.29-1.15L151.29-1.15 151.29-33.8Q151.29-34.35 151.59-34.68 151.89-35 152.44-35L152.44-35 165.14-35Q168.84-35 171.56-33.8 174.29-32.6 175.79-30.23 177.29-27.85 177.29-24.3L177.29-24.3Q177.29-20.75 175.79-18.4 174.29-16.05 171.56-14.85 168.84-13.65 165.14-13.65L165.14-13.65 156.29-13.65 156.29-1.15Q156.29-0.65 155.96-0.33 155.64 0 155.09 0L155.09 0ZM156.24-30.8L156.24-17.85 164.89-17.85Q168.59-17.85 170.44-19.5 172.29-21.15 172.29-24.3L172.29-24.3Q172.29-27.4 170.49-29.1 168.69-30.8 164.89-30.8L164.89-30.8 156.24-30.8ZM186.34 0L183.89 0Q183.39 0 183.06-0.33 182.74-0.65 182.74-1.15L182.74-1.15 182.74-24.8Q182.74-25.3 183.06-25.65 183.39-26 183.89-26L183.89-26 186.19-26Q186.69-26 187.04-25.65 187.39-25.3 187.39-24.8L187.39-24.8 187.39-22.6Q188.39-24.3 190.14-25.15 191.89-26 194.39-26L194.39-26 196.34-26Q196.84-26 197.16-25.68 197.49-25.35 197.49-24.85L197.49-24.85 197.49-22.8Q197.49-22.3 197.16-22 196.84-21.7 196.34-21.7L196.34-21.7 193.34-21.7Q190.64-21.7 189.09-20.13 187.54-18.55 187.54-15.85L187.54-15.85 187.54-1.15Q187.54-0.65 187.19-0.33 186.84 0 186.34 0L186.34 0ZM212.38 0.5L212.38 0.5Q208.58 0.5 206.03-0.95 203.48-2.4 202.13-4.98 200.78-7.55 200.63-10.85L200.63-10.85Q200.58-11.7 200.58-13.03 200.58-14.35 200.63-15.15L200.63-15.15Q200.78-18.5 202.16-21.05 203.53-23.6 206.08-25.05 208.63-26.5 212.38-26.5L212.38-26.5Q216.13-26.5 218.68-25.05 221.23-23.6 222.61-21.05 223.98-18.5 224.13-15.15L224.13-15.15Q224.18-14.35 224.18-13.03 224.18-11.7 224.13-10.85L224.13-10.85Q223.98-7.55 222.63-4.98 221.28-2.4 218.73-0.95 216.18 0.5 212.38 0.5ZM212.38-3.35L212.38-3.35Q215.48-3.35 217.33-5.33 219.18-7.3 219.33-11.1L219.33-11.1Q219.38-11.85 219.38-13 219.38-14.15 219.33-14.9L219.33-14.9Q219.18-18.7 217.33-20.68 215.48-22.65 212.38-22.65L212.38-22.65Q209.28-22.65 207.41-20.68 205.53-18.7 205.43-14.9L205.43-14.9Q205.38-14.15 205.38-13 205.38-11.85 205.43-11.1L205.43-11.1Q205.53-7.3 207.41-5.33 209.28-3.35 212.38-3.35ZM227.13 9.5L226.18 9.5Q225.68 9.5 225.36 9.18 225.03 8.85 225.03 8.35L225.03 8.35 225.03 6.65Q225.03 6.15 225.36 5.83 225.68 5.5 226.18 5.5L226.18 5.5 226.88 5.5Q228.68 5.5 229.53 4.83 230.38 4.15 230.66 3.03 230.93 1.9 230.93 0.55L230.93 0.55 230.93-24.85Q230.93-25.35 231.26-25.68 231.58-26 232.08-26L232.08-26 234.53-26Q235.03-26 235.36-25.68 235.68-25.35 235.68-24.85L235.68-24.85 235.68 0.6Q235.68 3.25 234.86 5.25 234.03 7.25 232.18 8.38 230.33 9.5 227.13 9.5L227.13 9.5ZM234.88-30.85L231.68-30.85Q231.18-30.85 230.86-31.18 230.53-31.5 230.53-32L230.53-32 230.53-34.7Q230.53-35.2 230.86-35.55 231.18-35.9 231.68-35.9L231.68-35.9 234.88-35.9Q235.38-35.9 235.73-35.55 236.08-35.2 236.08-34.7L236.08-34.7 236.08-32Q236.08-31.5 235.73-31.18 235.38-30.85 234.88-30.85L234.88-30.85ZM253.53 0.5L253.53 0.5Q248.33 0.5 245.28-2.68 242.23-5.85 241.93-11.35L241.93-11.35Q241.88-12 241.88-13.03 241.88-14.05 241.93-14.7L241.93-14.7Q242.13-18.25 243.58-20.93 245.03-23.6 247.55-25.05 250.08-26.5 253.48-26.5L253.48-26.5Q257.28-26.5 259.85-24.9 262.43-23.3 263.78-20.35 265.13-17.4 265.13-13.45L265.13-13.45 265.13-12.6Q265.13-12.05 264.8-11.75 264.48-11.45 263.98-11.45L263.98-11.45 246.68-11.45Q246.68-11.4 246.68-11.25 246.68-11.1 246.68-11L246.68-11Q246.78-8.95 247.58-7.18 248.38-5.4 249.9-4.3 251.43-3.2 253.48-3.2L253.48-3.2Q255.28-3.2 256.48-3.75 257.68-4.3 258.43-4.98 259.18-5.65 259.43-6.05L259.43-6.05Q259.88-6.65 260.13-6.78 260.38-6.9 260.93-6.9L260.93-6.9 263.38-6.9Q263.83-6.9 264.15-6.63 264.48-6.35 264.43-5.85L264.43-5.85Q264.38-5.1 263.63-4.03 262.88-2.95 261.5-1.9 260.13-0.85 258.1-0.18 256.08 0.5 253.53 0.5ZM246.68-15.05L246.68-14.9 260.38-14.9 260.38-15.05Q260.38-17.3 259.55-19.05 258.73-20.8 257.18-21.83 255.63-22.85 253.48-22.85L253.48-22.85Q251.33-22.85 249.8-21.83 248.28-20.8 247.48-19.05 246.68-17.3 246.68-15.05L246.68-15.05ZM281.63 0.5L281.63 0.5Q278.07 0.5 275.5-0.88 272.93-2.25 271.53-4.83 270.13-7.4 270.03-11L270.03-11Q269.98-11.75 269.98-13 269.98-14.25 270.03-15L270.03-15Q270.13-18.6 271.53-21.18 272.93-23.75 275.5-25.13 278.07-26.5 281.63-26.5L281.63-26.5Q284.53-26.5 286.6-25.7 288.68-24.9 290.03-23.65 291.38-22.4 292.05-20.95 292.73-19.5 292.78-18.2L292.78-18.2Q292.82-17.7 292.48-17.4 292.13-17.1 291.63-17.1L291.63-17.1 289.23-17.1Q288.73-17.1 288.48-17.32 288.23-17.55 287.98-18.1L287.98-18.1Q287.07-20.55 285.53-21.55 283.98-22.55 281.68-22.55L281.68-22.55Q278.68-22.55 276.8-20.7 274.93-18.85 274.78-14.75L274.78-14.75Q274.73-12.95 274.78-11.25L274.78-11.25Q274.93-7.1 276.8-5.28 278.68-3.45 281.68-3.45L281.68-3.45Q283.98-3.45 285.53-4.45 287.07-5.45 287.98-7.9L287.98-7.9Q288.23-8.45 288.48-8.7 288.73-8.95 289.23-8.95L289.23-8.95 291.63-8.95Q292.13-8.95 292.48-8.63 292.82-8.3 292.78-7.8L292.78-7.8Q292.73-6.75 292.32-5.65 291.93-4.55 291.05-3.43 290.18-2.3 288.88-1.43 287.57-0.55 285.78-0.03 283.98 0.5 281.63 0.5ZM312.32 0L308.87 0Q306.07 0 304.32-1.07 302.57-2.15 301.77-4.13 300.97-6.1 300.97-8.8L300.97-8.8 300.97-22 297.07-22Q296.57-22 296.25-22.33 295.92-22.65 295.92-23.15L295.92-23.15 295.92-24.85Q295.92-25.35 296.25-25.68 296.57-26 297.07-26L297.07-26 300.97-26 300.97-34.35Q300.97-34.85 301.3-35.18 301.62-35.5 302.12-35.5L302.12-35.5 304.47-35.5Q304.97-35.5 305.3-35.18 305.62-34.85 305.62-34.35L305.62-34.35 305.62-26 311.82-26Q312.37-26 312.67-25.68 312.97-25.35 312.97-24.85L312.97-24.85 312.97-23.15Q312.97-22.65 312.67-22.33 312.37-22 311.82-22L311.82-22 305.62-22 305.62-9.15Q305.62-6.8 306.42-5.45 307.22-4.1 309.27-4.1L309.27-4.1 312.32-4.1Q312.82-4.1 313.15-3.78 313.47-3.45 313.47-2.95L313.47-2.95 313.47-1.15Q313.47-0.65 313.15-0.33 312.82 0 312.32 0L312.32 0ZM327.27 0.5L327.27 0.5Q324.47 0.5 322.47-0.2 320.47-0.9 319.22-1.9 317.97-2.9 317.35-3.9 316.72-4.9 316.67-5.5L316.67-5.5Q316.62-6.05 317.02-6.35 317.42-6.65 317.82-6.65L317.82-6.65 320.07-6.65Q320.32-6.65 320.5-6.58 320.67-6.5 320.97-6.15L320.97-6.15Q321.62-5.45 322.42-4.75 323.22-4.05 324.4-3.6 325.57-3.15 327.32-3.15L327.32-3.15Q329.87-3.15 331.52-4.13 333.17-5.1 333.17-7L333.17-7Q333.17-8.25 332.5-9 331.82-9.75 330.1-10.35 328.37-10.95 325.37-11.6L325.37-11.6Q322.37-12.3 320.62-13.33 318.87-14.35 318.12-15.78 317.37-17.2 317.37-19L317.37-19Q317.37-20.85 318.47-22.58 319.57-24.3 321.7-25.4 323.82-26.5 327.02-26.5L327.02-26.5Q329.62-26.5 331.47-25.85 333.32-25.2 334.52-24.23 335.72-23.25 336.32-22.3 336.92-21.35 336.97-20.7L336.97-20.7Q337.02-20.2 336.67-19.88 336.32-19.55 335.87-19.55L335.87-19.55 333.77-19.55Q333.42-19.55 333.2-19.7 332.97-19.85 332.77-20.05L332.77-20.05Q332.27-20.7 331.6-21.35 330.92-22 329.85-22.43 328.77-22.85 327.02-22.85L327.02-22.85Q324.52-22.85 323.27-21.8 322.02-20.75 322.02-19.15L322.02-19.15Q322.02-18.2 322.57-17.45 323.12-16.7 324.67-16.1 326.22-15.5 329.27-14.8L329.27-14.8Q332.57-14.15 334.47-13.05 336.37-11.95 337.17-10.5 337.97-9.05 337.97-7.15L337.97-7.15Q337.97-5.05 336.77-3.3 335.57-1.55 333.17-0.53 330.77 0.5 327.27 0.5Z" opacity="1" transform="matrix(1,0,0,1,0,0)" fill="#ffffff" class="wordmark-text-0" data-fill-palette-color="quaternary" id="text-0"></path></svg></g></svg></g></svg></g></svg></g><g></g></svg></g><defs></defs></svg><rect width="395.52" height="90.94743644975124" fill="none" stroke="none" visibility="hidden"></rect></g></svg></g></svg>