<svg xmlns="http://www.w3.org/2000/svg" version="1.1" xmlns:xlink="http://www.w3.org/1999/xlink" xmlns:svgjs="http://svgjs.dev/svgjs" width="1500" height="219" viewBox="0 0 1500 219"><g transform="matrix(1,0,0,1,-0.9090909090909918,-0.8921347914813822)"><svg viewBox="0 0 396 58" data-background-color="#ffffff" preserveAspectRatio="xMidYMid meet" height="219" width="1500" xmlns="http://www.w3.org/2000/svg" xmlns:xlink="http://www.w3.org/1999/xlink"><g id="tight-bounds" transform="matrix(1,0,0,1,0.2400000000000091,0.23627314112292197)"><svg viewBox="0 0 395.52 57.52745371775417" height="57.52745371775417" width="395.52"><g><svg viewBox="0 0 395.52 57.52745371775417" height="57.52745371775417" width="395.52"><g><svg viewBox="0 0 395.52 57.52745371775417" height="57.52745371775417" width="395.52"><g><svg viewBox="0 0 395.52 57.52745371775417" height="57.52745371775417" width="395.52"><g id="textblocktransform"><svg viewBox="0 0 395.52 57.52745371775417" height="57.52745371775417" width="395.52" id="textblock"><g><svg viewBox="0 0 395.52 57.52745371775417" height="57.52745371775417" width="395.52"><g transform="matrix(1,0,0,1,0,0)"><svg width="395.52" viewBox="1.27 -37.4 321.75 46.8" height="57.52745371775417" data-palette-color="#b3d9ff"><path d="M18.75-33.08L18.75-33.08Q23.32-33.08 26.54-31.49L26.54-31.49 26.54-24.02 26.49-23.97Q25.12-26.07 20.73-26.76L20.73-26.76Q19.43-26.98 17.46-26.98 15.48-26.98 13.57-26.23 11.67-25.49 10.45-24.12L10.45-24.12Q8.08-21.46 8.08-16.53L8.08-16.53Q8.08-10.79 11.08-7.98L11.08-7.98Q13.57-5.64 17.68-5.64L17.68-5.64Q22.31-5.64 25.2-7.62L25.2-7.62Q26.25-8.33 26.98-9.38L26.98-9.38 27.05-9.33 27.05-2.49Q23.32 0.61 16.99 0.61L16.99 0.61Q9.55 0.61 5.32-4.13L5.32-4.13Q1.27-8.64 1.27-16.09L1.27-16.09Q1.27-23.97 5.71-28.52L5.71-28.52Q10.21-33.08 18.75-33.08ZM49.44-1.51L49.44-1.51Q45.97 0.37 43.16 0.37 40.35 0.37 38.35-0.16 36.35-0.68 34.96-1.71L34.96-1.71Q32.13-3.78 32.13-7.71L32.13-7.71Q32.13-11.23 35.59-13.57L35.59-13.57Q39.35-16.11 45.8-16.11L45.8-16.11 46.77-16.09Q47.07-16.06 47.43-16.05 47.8-16.04 48.09-15.99L48.09-15.99Q47.9-19.9 44.72-20.56L44.72-20.56Q43.67-20.78 42.49-20.78 41.31-20.78 40.17-20.57 39.04-20.36 37.96-20.02L37.96-20.02Q35.59-19.26 34.57-18.29L34.57-18.29 34.49-18.33 33.76-23.73Q38.08-26 43.21-26L43.21-26Q51.17-26 53.39-20.26L53.39-20.26Q54.1-18.43 54.1-16.14L54.1-16.14 54.1-7.3Q54.1-4.47 56.1-3.44L56.1-3.44 51.68 0.61Q50.29-0.12 49.44-1.51ZM48.12-6.49L48.12-11.6Q47.46-11.72 46.75-11.72L46.75-11.72 45.77-11.72Q40.38-11.72 38.91-9.33L38.91-9.33Q38.47-8.62 38.47-7.84 38.47-7.06 38.75-6.46 39.04-5.86 39.69-5.47L39.69-5.47Q40.96-4.74 43.47-4.74 45.97-4.74 48.14-5.93L48.14-5.93Q48.12-6.2 48.12-6.49L48.12-6.49ZM70.31 0.37L70.31 0.37Q63.42 0.37 59.93-2.15L59.93-2.15Q59.98-2.88 60.08-3.81L60.08-3.81 60.3-5.57Q60.49-7.3 60.54-7.73 60.59-8.15 60.62-8.19 60.64-8.23 61.01-7.8 61.37-7.37 62.4-6.76 63.42-6.15 64.77-5.69L64.77-5.69Q67.67-4.69 70.82-4.69L70.82-4.69Q75.04-4.69 75.04-7.5L75.04-7.5Q75.04-8.4 74.24-8.84L74.24-8.84Q72.8-9.57 70-9.95 67.21-10.33 65.42-11.06 63.64-11.79 62.52-12.82L62.52-12.82Q60.44-14.75 60.44-17.87L60.44-17.87Q60.44-21.68 63.37-23.85L63.37-23.85Q66.28-26 71.41-26L71.41-26Q76.48-26 80.07-23.12L80.07-23.12Q79.9-22.49 79.71-21.9L79.71-21.9Q79.15-20.29 78.88-19.58L78.88-19.58 78.32-18.14Q78.27-17.94 78.24-17.94L78.24-17.94Q78.19-17.94 77.85-18.46L77.85-18.46Q76.31-20.24 73.07-20.8L73.07-20.8Q72.07-21 71.02-21L71.02-21Q66.57-21 66.57-18.31L66.57-18.31Q66.57-17.38 67.5-16.89L67.5-16.89Q69.23-15.97 72.25-15.53 75.26-15.09 76.83-14.34 78.39-13.6 79.34-12.55L79.34-12.55Q81.1-10.64 81.1-7.5L81.1-7.5Q81.1-4.05 78.34-1.9L78.34-1.9Q75.46 0.37 70.31 0.37ZM93.38-16.97L93.38-2.73Q93.38-0.63 93.47 0L93.47 0 87.39 0 87.39-34.91 93.38-34.91 93.38-23.61Q96.53-26 99.87-26L99.87-26Q103.97-26 106.46-23.29L106.46-23.29Q108.9-20.58 108.9-16.11L108.9-16.11 108.9-6.4Q108.9-2.27 109.03-1.44 109.15-0.61 109.36-0.37 109.56-0.12 109.71 0.07L109.71 0.07 109.66 0.17Q107.68 0 106.78 0L106.78 0 105.05 0Q104.24 0 102.92 0.07L102.92 0.07 102.92-14.06Q102.92-17.43 101.43-19.04L101.43-19.04Q100.31-20.26 98.38-20.26L98.38-20.26Q95.52-20.26 93.38-16.97L93.38-16.97ZM131.17 0L131.17-2.22Q128.04 0.37 124.36 0.37L124.36 0.37Q120.4 0.37 118.15-2.29L118.15-2.29Q116.01-4.88 116.01-9.4L116.01-9.4 116.01-19.09Q116.01-23.97 115.8-24.69 115.59-25.42 115.49-25.61L115.49-25.61Q116.62-25.51 117.84-25.51L117.84-25.51 119.86-25.51Q120.67-25.51 121.99-25.59L121.99-25.59 121.99-11.45Q121.99-6.42 124.72-5.62L124.72-5.62Q125.55-5.37 126.53-5.37L126.53-5.37Q129.41-5.37 131.17-7.47L131.17-7.47 131.17-25.51 137.22-25.51 137.22-3.13Q137.22-0.98 137.42 0L137.42 0 131.17 0ZM145.15 0L145.15-32.64Q148.55-33.08 152.11-33.08L152.11-33.08Q158.75-33.08 162.21-29.97 165.66-26.86 165.66-20.65L165.66-20.65Q165.66-15.11 161.88-11.89L161.88-11.89Q158.34-8.86 152.77-8.86L152.77-8.86Q152.14-8.86 151.38-8.94L151.38-8.94 151.38 0 145.15 0ZM152.84-27.2L152.84-27.2Q152.11-27.2 151.38-27.15L151.38-27.15 151.38-14.31Q152.16-14.21 153.28-14.21 154.41-14.21 155.63-14.69 156.85-15.16 157.68-16.02L157.68-16.02Q159.41-17.8 159.41-20.7L159.41-20.7Q159.41-27.2 152.84-27.2ZM175.82-17.77L175.82-2.73Q175.82-0.63 175.91 0L175.91 0 169.83 0 169.83-25.51 175.82-25.51 175.82-23.63Q177.89-26 180.17-26 182.46-26 183.77-25.44L183.77-25.44 183.33-18.87 183.24-18.8Q182.38-20.31 179.7-20.31L179.7-20.31Q178.67-20.31 177.61-19.62 176.55-18.92 175.82-17.77L175.82-17.77ZM184.89-12.62L184.89-12.62Q184.89-15.31 185.81-17.76 186.73-20.21 188.43-22.05L188.43-22.05Q192.17-26 198.13-26L198.13-26Q204.06-26 207.55-22.27L207.55-22.27Q210.9-18.7 210.9-13.01L210.9-13.01Q210.9-7.32 207.45-3.59L207.45-3.59Q203.82 0.37 197.81 0.37L197.81 0.37Q191.61 0.37 188.09-3.52L188.09-3.52Q184.89-7.06 184.89-12.62ZM190.83-12.77L190.83-12.77Q190.83-11.23 191.34-9.79 191.85-8.35 192.8-7.32L192.8-7.32Q194.83-5.1 198.13-5.1L198.13-5.1Q201.18-5.1 202.94-7.28L202.94-7.28Q204.65-9.38 204.65-12.74L204.65-12.74Q204.65-16.16 202.89-18.26L202.89-18.26Q201.01-20.51 197.74-20.51L197.74-20.51Q194.42-20.51 192.54-18.12L192.54-18.12Q190.83-15.92 190.83-12.77ZM219.61-29.1L214.7-32.62Q216.29-35.16 218.34-37.4L218.34-37.4 223-33.72Q221.78-32.15 221.34-31.57L221.34-31.57 220.49-30.37Q220.07-29.81 219.61-29.1L219.61-29.1ZM211.99 3.78L211.99 3.78Q215.61 3.78 215.61-1.59L215.61-1.59 215.61-25.51 221.54-25.51 221.54-3.34Q221.54 6.91 215.7 8.79L215.7 8.79Q213.8 9.4 211.38 9.4L211.38 9.4 208.84 2.98 208.89 2.86Q210.28 3.78 211.99 3.78ZM227.27-12.55L227.27-12.55Q227.27-15.41 228.25-17.85 229.23-20.29 231.01-22.12L231.01-22.12Q234.82-26 240.97-26L240.97-26Q246.17-26 249.32-22.56L249.32-22.56Q252.42-19.24 252.42-14.21L252.42-14.21Q252.42-12.28 252.13-11.57L252.13-11.57Q249.68-10.89 242.19-10.89L242.19-10.89 233.6-10.89Q234.23-8.28 236.55-6.82 238.87-5.37 242.58-5.37L242.58-5.37Q246.46-5.37 249.25-6.76L249.25-6.76Q249.98-7.13 250.34-7.45L250.34-7.45Q250.29-6.42 250.22-5.35L250.22-5.35 249.95-1.54Q248.1-0.27 243.95 0.22L243.95 0.22Q242.73 0.37 241.6 0.37L241.6 0.37Q235.4 0.37 231.35-3.25L231.35-3.25Q227.27-6.88 227.27-12.55ZM245.92-15.63L245.92-15.63Q244.92-20.87 240.21-20.87L240.21-20.87Q236.5-20.87 234.57-17.68L234.57-17.68Q233.99-16.7 233.67-15.53L233.67-15.53Q234.25-15.5 235.11-15.48L235.11-15.48 236.92-15.48Q237.82-15.45 238.65-15.45L238.65-15.45 240.04-15.45Q241.29-15.45 242.48-15.48L242.48-15.48 244.48-15.55Q245.29-15.58 245.92-15.63ZM277.1-8.33L277.66-2.37Q274.93 0.37 269.09 0.37L269.09 0.37Q263.43 0.37 259.84-3.08L259.84-3.08Q256.2-6.57 256.2-12.35L256.2-12.35Q256.2-18.24 259.79-22.02L259.79-22.02Q263.6-26 269.97-26L269.97-26Q274.49-26 277.54-24.02L277.54-24.02 276.56-17.77 276.39-17.8Q275.22-19.21 273.93-19.65L273.93-19.65Q271.83-20.39 269.73-20.39 267.63-20.39 266.43-19.85 265.23-19.31 264.38-18.36L264.38-18.36Q262.67-16.41 262.67-13.18L262.67-13.18Q262.67-7.47 266.63-5.71L266.63-5.71Q267.99-5.13 269.52-5.13 271.04-5.13 272.18-5.4 273.31-5.66 274.24-6.13L274.24-6.13Q276.22-7.1 276.93-8.4L276.93-8.4 277.1-8.33ZM294.09-5.37L294.09-5.37Q297.24-5.37 298.41-7.01L298.41-7.01 298.61-7.01 298.68-1.34Q297.48-0.15 294.24 0.24L294.24 0.24Q293.36 0.37 292.05 0.37 290.74 0.37 289.22-0.12 287.69-0.61 286.62-1.71L286.62-1.71Q284.4-3.98 284.4-8.81L284.4-8.81 284.4-19.9 280.71-19.9Q280.69-20.61 280.69-21.34L280.69-21.34 280.69-25.1Q280.69-25.51 280.71-25.51L280.71-25.51 284.4-25.51 284.4-32.47 290.38-32.47 290.38-25.51 297.09-25.51 297.09-19.9 290.38-19.9 290.38-9.94Q290.38-6.1 292.5-5.57L292.5-5.57Q293.19-5.37 294.09-5.37ZM312.23 0.37L312.23 0.37Q305.34 0.37 301.85-2.15L301.85-2.15Q301.9-2.88 302-3.81L302-3.81 302.22-5.57Q302.41-7.3 302.46-7.73 302.51-8.15 302.53-8.19 302.56-8.23 302.92-7.8 303.29-7.37 304.32-6.76 305.34-6.15 306.68-5.69L306.68-5.69Q309.59-4.69 312.74-4.69L312.74-4.69Q316.96-4.69 316.96-7.5L316.96-7.5Q316.96-8.4 316.16-8.84L316.16-8.84Q314.72-9.57 311.92-9.95 309.13-10.33 307.34-11.06 305.56-11.79 304.44-12.82L304.44-12.82Q302.36-14.75 302.36-17.87L302.36-17.87Q302.36-21.68 305.29-23.85L305.29-23.85Q308.2-26 313.32-26L313.32-26Q318.4-26 321.99-23.12L321.99-23.12Q321.82-22.49 321.63-21.9L321.63-21.9Q321.06-20.29 320.8-19.58L320.8-19.58 320.23-18.14Q320.18-17.94 320.16-17.94L320.16-17.94Q320.11-17.94 319.77-18.46L319.77-18.46Q318.23-20.24 314.98-20.8L314.98-20.8Q313.98-21 312.93-21L312.93-21Q308.49-21 308.49-18.31L308.49-18.31Q308.49-17.38 309.42-16.89L309.42-16.89Q311.15-15.97 314.17-15.53 317.18-15.09 318.74-14.34 320.31-13.6 321.26-12.55L321.26-12.55Q323.02-10.64 323.02-7.5L323.02-7.5Q323.02-4.05 320.26-1.9L320.26-1.9Q317.38 0.37 312.23 0.37Z" opacity="1" transform="matrix(1,0,0,1,0,0)" fill="#b3d9ff" class="wordmark-text-0" data-fill-palette-color="primary" id="text-0"></path></svg></g></svg></g></svg></g></svg></g><g></g></svg></g></svg></g><defs></defs></svg><rect width="395.52" height="57.52745371775417" fill="none" stroke="none" visibility="hidden"></rect></g></svg></g></svg>